P2
10 10
15
    1    1    1   15   15   15   10   15    3    3
    1    1    1   15    6    6   15    3    3   15
   15    1   15   15   15   15   15   15    3   15
   15    1   15   15   13   15   15    9   15    8
   15   15    2    2   15   12   15   15    0   15
    2    2    2   15   15   15   11   15    0   15
    2   15   15   15    7    7   15    0    0   15
   15    4    4    4   15   15    0    0    0    0
    5   15   15   15   15    0    0    0    0    0
    5    5   15   14   15   15    0    0    0    0
